<svg xmlns="http://www.w3.org/2000/svg" xmlns:xlink="http://www.w3.org/1999/xlink" width="500" zoomAndPan="magnify" viewBox="0 0 375 374.999991" height="500" preserveAspectRatio="xMidYMid meet" version="1.0"><defs><g/><clipPath id="5133903460"><path d="M 75.203125 75.203125 L 299.796875 75.203125 L 299.796875 299.796875 L 75.203125 299.796875 Z M 75.203125 75.203125 " clip-rule="nonzero"/></clipPath><clipPath id="aa07df7f31"><path d="M 187.5 75.203125 C 125.480469 75.203125 75.203125 125.480469 75.203125 187.5 C 75.203125 249.519531 125.480469 299.796875 187.5 299.796875 C 249.519531 299.796875 299.796875 249.519531 299.796875 187.5 C 299.796875 125.480469 249.519531 75.203125 187.5 75.203125 Z M 187.5 75.203125 " clip-rule="nonzero"/></clipPath><clipPath id="ec0f1b798a"><path d="M 95.246094 185.980469 L 106.523438 185.980469 L 106.523438 197.257812 L 95.246094 197.257812 Z M 95.246094 185.980469 " clip-rule="nonzero"/></clipPath><clipPath id="b994432bfd"><path d="M 100.882812 185.980469 C 97.769531 185.980469 95.246094 188.503906 95.246094 191.617188 C 95.246094 194.730469 97.769531 197.257812 100.882812 197.257812 C 103.996094 197.257812 106.523438 194.730469 106.523438 191.617188 C 106.523438 188.503906 103.996094 185.980469 100.882812 185.980469 Z M 100.882812 185.980469 " clip-rule="nonzero"/></clipPath><clipPath id="7f24613a6e"><path d="M 268.257812 185.980469 L 279.53125 185.980469 L 279.53125 197.257812 L 268.257812 197.257812 Z M 268.257812 185.980469 " clip-rule="nonzero"/></clipPath><clipPath id="108d6837bc"><path d="M 273.894531 185.980469 C 270.78125 185.980469 268.257812 188.503906 268.257812 191.617188 C 268.257812 194.730469 270.78125 197.257812 273.894531 197.257812 C 277.007812 197.257812 279.53125 194.730469 279.53125 191.617188 C 279.53125 188.503906 277.007812 185.980469 273.894531 185.980469 Z M 273.894531 185.980469 " clip-rule="nonzero"/></clipPath><clipPath id="6d26c4f7ae"><path d="M 134 162 L 241 162 L 241 226.351562 L 134 226.351562 Z M 134 162 " clip-rule="nonzero"/></clipPath><clipPath id="ceaa23a514"><path d="M 137 156.601562 L 169 156.601562 L 169 165 L 137 165 Z M 137 156.601562 " clip-rule="nonzero"/></clipPath></defs><g clip-path="url(#5133903460)"><g clip-path="url(#aa07df7f31)"><path fill="#f8f1e5" d="M 75.203125 75.203125 L 299.796875 75.203125 L 299.796875 299.796875 L 75.203125 299.796875 Z M 75.203125 75.203125 " fill-opacity="1" fill-rule="nonzero"/></g></g><g clip-path="url(#ec0f1b798a)"><g clip-path="url(#b994432bfd)"><path fill="#000000" d="M 95.246094 185.980469 L 106.523438 185.980469 L 106.523438 197.257812 L 95.246094 197.257812 Z M 95.246094 185.980469 " fill-opacity="1" fill-rule="nonzero"/></g></g><g clip-path="url(#7f24613a6e)"><g clip-path="url(#108d6837bc)"><path fill="#000000" d="M 268.257812 185.980469 L 279.53125 185.980469 L 279.53125 197.257812 L 268.257812 197.257812 Z M 268.257812 185.980469 " fill-opacity="1" fill-rule="nonzero"/></g></g><g fill="#000000" fill-opacity="1"><g transform="translate(119.518648, 158.818738)"><g><path d="M -3.105469 -5.496094 L -1.746094 -4.273438 C -1.066406 -3.597656 -0.859375 -3.351562 -0.675781 -2.941406 C -0.292969 -1.859375 -0.292969 -1.859375 0.0117188 -1.585938 C 0.589844 -1.066406 1.367188 -1.042969 1.855469 -1.585938 C 2.007812 -1.757812 2.21875 -2.058594 2.429688 -2.359375 C 2.84375 -3.09375 3.328125 -3.703125 4.0625 -4.519531 C 4.917969 -5.46875 5.933594 -6.460938 6.488281 -6.945312 C 6.828125 -7.253906 7.136719 -7.527344 7.289062 -7.699219 C 7.777344 -8.242188 7.707031 -8.980469 7.128906 -9.5 C 6.925781 -9.683594 6.722656 -9.804688 6.527344 -9.859375 C 6 -10.023438 5.773438 -10.042969 5.378906 -10.152344 C 5.082031 -10.296875 4.878906 -10.480469 4.269531 -10.964844 L 2.910156 -12.1875 L -0.929688 -15.640625 C -1.675781 -16.3125 -1.753906 -16.566406 -1.449219 -16.90625 C -1.019531 -17.382812 0.136719 -17.507812 1.828125 -17.339844 C 3.945312 -17.03125 8.140625 -15.410156 9.261719 -14.402344 C 9.464844 -14.21875 9.464844 -14.21875 9.726562 -13.554688 C 9.804688 -13.300781 9.980469 -13.082031 10.148438 -12.929688 C 10.726562 -12.410156 11.535156 -12.421875 11.992188 -12.929688 C 12.175781 -13.132812 12.386719 -13.4375 12.65625 -13.804688 C 13.105469 -14.507812 13.988281 -15.558594 14.964844 -16.644531 C 15.789062 -17.5625 16.433594 -18.210938 17.054688 -18.699219 C 17.363281 -18.972656 17.644531 -19.214844 17.796875 -19.386719 C 18.285156 -19.929688 18.148438 -20.664062 17.503906 -21.246094 C 17.230469 -21.488281 17.132812 -21.515625 16.480469 -21.613281 C 15.828125 -21.707031 15.53125 -21.789062 14.332031 -22.5 C 11.089844 -24.429688 7.109375 -25.675781 4.097656 -25.742188 C 2.9375 -25.679688 2.9375 -25.679688 2.835938 -25.769531 C 2.699219 -25.894531 2.714844 -26.183594 2.953125 -27.199219 C 3.621094 -29.855469 2.230469 -32.886719 -0.828125 -35.636719 C -6.332031 -40.582031 -12.164062 -40.175781 -17.265625 -34.503906 C -17.660156 -34.0625 -18.238281 -33.351562 -18.9375 -32.503906 C -21.425781 -29.398438 -21.425781 -29.398438 -22.066406 -28.683594 C -22.738281 -27.9375 -23.351562 -27.320312 -24.160156 -26.695312 C -24.53125 -26.351562 -24.871094 -26.042969 -25.082031 -25.804688 C -25.570312 -25.261719 -25.535156 -24.554688 -24.921875 -24.003906 C -24.71875 -23.820312 -24.519531 -23.699219 -24.320312 -23.648438 C -23.832031 -23.574219 -23.800781 -23.546875 -23.207031 -23.382812 C -22.875 -23.207031 -22.671875 -23.023438 -22.0625 -22.539062 L -20.703125 -21.316406 Z M -12.445312 -25.992188 C -13.160156 -26.632812 -13.179688 -27.019531 -12.507812 -27.769531 C -10.429688 -30.078125 -8.695312 -30.300781 -6.65625 -28.46875 C -4.722656 -26.726562 -4.523438 -24.828125 -6.140625 -23.027344 C -7.300781 -21.738281 -7.585938 -21.625 -8.335938 -22.296875 Z M -12.445312 -25.992188 "/></g></g></g><g fill="#000000" fill-opacity="1"><g transform="translate(139.526463, 137.430957)"><g><path d="M -1.058594 -6.222656 C 0.324219 -3.648438 0.324219 -3.648438 0.34375 -3.035156 C 0.332031 -1.890625 0.332031 -1.890625 0.550781 -1.488281 C 0.9375 -0.761719 1.617188 -0.558594 2.34375 -0.945312 C 2.746094 -1.164062 3.207031 -1.460938 3.789062 -1.824219 C 4.59375 -2.359375 7.730469 -4.148438 9.941406 -5.335938 C 12.640625 -6.78125 16.828125 -8.925781 18.023438 -9.410156 L 19.289062 -10.039062 C 20.054688 -10.449219 20.199219 -11.148438 19.722656 -12.035156 C 18.605469 -14.023438 17.941406 -15.742188 17.457031 -17.609375 C 17.386719 -17.933594 17.277344 -18.238281 17.167969 -18.4375 C 16.867188 -19.003906 15.980469 -19.203125 15.296875 -18.835938 C 15.136719 -18.75 14.957031 -18.601562 14.777344 -18.453125 C 12.691406 -16.347656 12.171875 -15.964844 9.433594 -14.496094 L 7.582031 -13.503906 C 6.253906 -12.789062 5.964844 -12.84375 5.40625 -13.890625 L 3.828125 -16.828125 C 3.351562 -17.714844 3.503906 -18.105469 4.472656 -18.625 L 6.765625 -19.855469 C 7.851562 -20.441406 8.941406 -20.921875 9.59375 -21.0625 C 11.195312 -21.457031 11.195312 -21.457031 11.519531 -21.628906 C 12.242188 -22.015625 12.585938 -22.824219 12.261719 -23.429688 C 12.199219 -23.546875 12.050781 -23.726562 11.878906 -23.949219 C 11.496094 -24.46875 10.746094 -25.671875 10.273438 -26.558594 C 9.882812 -27.285156 9.535156 -28.03125 9.355469 -28.554688 C 9.265625 -28.820312 9.136719 -29.058594 9.074219 -29.179688 C 8.726562 -29.824219 7.863281 -30.085938 7.175781 -29.71875 C 6.976562 -29.613281 6.675781 -29.398438 6.394531 -29.144531 C 5.023438 -27.839844 4.542969 -27.476562 3.496094 -26.914062 L 1.082031 -25.621094 C -0.285156 -24.886719 -0.511719 -24.921875 -1.117188 -26.046875 L -2.5625 -28.746094 C -3.167969 -29.871094 -3.113281 -30.058594 -1.984375 -30.660156 L -0.0117188 -31.71875 C 2.199219 -32.90625 3.597656 -33.398438 5.507812 -33.699219 C 5.875 -33.789062 6.238281 -33.882812 6.402344 -33.96875 C 7.042969 -34.3125 7.386719 -35.222656 7.105469 -35.746094 C 7.019531 -35.90625 6.847656 -36.128906 6.640625 -36.324219 C 5.539062 -37.601562 4.476562 -39.105469 3.523438 -40.976562 C 3.066406 -41.824219 2.429688 -42.050781 1.703125 -41.660156 C 1.503906 -41.554688 1.21875 -41.402344 0.917969 -41.1875 C 0.277344 -40.742188 -3.742188 -38.378906 -4.988281 -37.707031 C -7.324219 -36.457031 -12.257812 -33.964844 -13.390625 -33.460938 C -13.894531 -33.242188 -14.398438 -33.023438 -14.679688 -32.871094 C -15.484375 -32.441406 -15.691406 -31.757812 -15.300781 -31.035156 C -15.152344 -30.753906 -15.003906 -30.574219 -14.855469 -30.496094 C -14.503906 -30.21875 -14.191406 -30.023438 -13.878906 -29.828125 C -13.625 -29.550781 -13.515625 -29.347656 -13.085938 -28.644531 L -12.246094 -27.074219 Z M -1.058594 -6.222656 "/></g></g></g><g fill="#000000" fill-opacity="1"><g transform="translate(163.108822, 125.547702)"><g><path d="M 18.183594 -5.851562 C 18.070312 -6.433594 17.914062 -8.21875 17.902344 -8.773438 C 17.917969 -10.402344 17.917969 -10.402344 17.863281 -10.671875 C 17.71875 -11.4375 16.988281 -11.855469 16.089844 -11.683594 C 15.730469 -11.613281 15.6875 -11.605469 14.929688 -11.179688 C 14.425781 -10.898438 14.03125 -10.777344 13.582031 -10.691406 C 10.488281 -10.097656 8.9375 -12.359375 7.597656 -19.359375 C 7.023438 -22.367188 6.625 -26.152344 6.753906 -27.429688 C 6.882812 -28.945312 7.433594 -29.699219 8.601562 -29.925781 C 9.09375 -30.019531 9.523438 -29.960938 9.90625 -29.664062 C 10.96875 -28.980469 11.066406 -28.953125 11.695312 -29.074219 C 12.726562 -29.269531 13.339844 -29.945312 13.195312 -30.710938 C 13.152344 -30.933594 13.054688 -31.195312 12.941406 -31.546875 C 12.082031 -33.847656 11.621094 -35.292969 11.347656 -36.960938 C 11.21875 -37.632812 11.070312 -37.929688 10.667969 -38.085938 C 9.800781 -38.480469 8.117188 -38.527344 6.367188 -38.195312 C 1.523438 -37.265625 -1.628906 -34.523438 -2.828125 -30.109375 C -3.613281 -27.402344 -3.472656 -22.035156 -2.507812 -17.007812 C -0.980469 -9.019531 1.5625 -4.71875 6 -2.683594 C 8.148438 -1.652344 10.65625 -1.433594 13.484375 -1.972656 C 16.9375 -2.636719 18.675781 -3.527344 18.476562 -4.558594 Z M 18.183594 -5.851562 "/></g></g></g><g fill="#000000" fill-opacity="1"><g transform="translate(184.514182, 121.258555)"><g><path d="M 17.742188 -34.363281 C 13.300781 -34.925781 9.042969 -32.929688 6.492188 -29.15625 C 4.953125 -26.816406 3.535156 -22.160156 2.917969 -17.265625 C 2.042969 -10.332031 2.765625 -5.5 5.1875 -2.0625 C 6.902344 0.410156 9.652344 1.957031 13.007812 2.378906 C 16.359375 2.804688 19.363281 1.984375 21.640625 0.015625 C 24.84375 -2.753906 26.742188 -7.210938 27.628906 -14.238281 C 28.609375 -21.988281 27.765625 -26.972656 24.890625 -30.46875 C 23.128906 -32.53125 20.414062 -34.027344 17.742188 -34.363281 Z M 16.582031 -26.269531 C 18.800781 -25.988281 19.105469 -23.648438 18.074219 -15.488281 C 17.089844 -7.695312 16.167969 -5.507812 13.992188 -5.785156 C 11.816406 -6.058594 11.511719 -8.398438 12.550781 -16.601562 C 13.511719 -24.214844 14.496094 -26.53125 16.582031 -26.269531 Z M 16.582031 -26.269531 "/></g></g></g><g fill="#000000" fill-opacity="1"><g transform="translate(212.21717, 124.929996)"><g><path d="M 4.558594 -4.367188 L 3.710938 -2.746094 C 3.226562 -1.917969 3.035156 -1.65625 2.683594 -1.378906 C 1.730469 -0.742188 1.730469 -0.742188 1.539062 -0.378906 C 1.179688 0.308594 1.347656 1.066406 1.996094 1.40625 C 2.199219 1.515625 2.542969 1.644531 2.886719 1.773438 C 3.699219 1.992188 4.410156 2.3125 5.378906 2.824219 C 6.511719 3.417969 7.726562 4.15625 8.328125 4.574219 C 8.714844 4.828125 9.054688 5.058594 9.257812 5.164062 C 9.90625 5.503906 10.605469 5.253906 10.964844 4.566406 C 11.09375 4.324219 11.160156 4.097656 11.164062 3.894531 C 11.195312 3.34375 11.15625 3.117188 11.164062 2.710938 C 11.234375 2.382812 11.359375 2.140625 11.679688 1.433594 L 12.53125 -0.183594 L 14.925781 -4.757812 C 15.394531 -5.648438 15.621094 -5.785156 16.027344 -5.574219 C 16.59375 -5.277344 17 -4.183594 17.253906 -2.503906 C 17.476562 -0.375 16.941406 4.089844 16.242188 5.425781 C 16.113281 5.667969 16.113281 5.667969 15.535156 6.085938 C 15.304688 6.222656 15.136719 6.445312 15.03125 6.648438 C 14.671875 7.335938 14.882812 8.117188 15.488281 8.433594 C 15.730469 8.5625 16.074219 8.691406 16.5 8.863281 C 17.292969 9.121094 18.527344 9.71875 19.824219 10.398438 C 20.914062 10.972656 21.703125 11.4375 22.328125 11.917969 C 22.671875 12.148438 22.972656 12.359375 23.175781 12.464844 C 23.820312 12.804688 24.503906 12.492188 24.90625 11.722656 C 25.074219 11.398438 25.078125 11.296875 25.007812 10.640625 C 24.9375 9.988281 24.945312 9.679688 25.339844 8.339844 C 26.410156 4.722656 26.632812 0.558594 25.957031 -2.375 C 25.609375 -3.488281 25.609375 -3.488281 25.671875 -3.609375 C 25.757812 -3.769531 26.046875 -3.824219 27.089844 -3.847656 C 29.828125 -3.855469 32.421875 -5.949219 34.332031 -9.589844 C 37.769531 -16.144531 35.9375 -21.695312 29.179688 -25.242188 C 28.652344 -25.515625 27.824219 -25.898438 26.832031 -26.367188 C 23.207031 -28.011719 23.207031 -28.011719 22.355469 -28.457031 C 21.464844 -28.925781 20.71875 -29.367188 19.914062 -29.996094 C 19.488281 -30.273438 19.105469 -30.523438 18.824219 -30.671875 C 18.175781 -31.011719 17.496094 -30.800781 17.117188 -30.074219 C 16.988281 -29.828125 16.921875 -29.605469 16.917969 -29.402344 C 16.96875 -28.910156 16.949219 -28.871094 16.9375 -28.257812 C 16.847656 -27.890625 16.722656 -27.648438 16.402344 -26.941406 L 15.550781 -25.320312 Z M 22.121094 -18.472656 C 22.566406 -19.320312 22.9375 -19.4375 23.828125 -18.96875 C 26.578125 -17.527344 27.21875 -15.898438 25.945312 -13.472656 C 24.738281 -11.167969 22.945312 -10.507812 20.804688 -11.632812 C 19.265625 -12.4375 19.085938 -12.6875 19.554688 -13.574219 Z M 22.121094 -18.472656 "/></g></g></g><g fill="#000000" fill-opacity="1"><g transform="translate(237.880095, 138.786794)"><g><path d="M 5.804688 -2.480469 L 4.441406 -1.265625 C 3.695312 -0.660156 3.425781 -0.480469 2.996094 -0.34375 C 1.882812 -0.0859375 1.882812 -0.0859375 1.574219 0.1875 C 0.996094 0.703125 0.886719 1.476562 1.339844 1.984375 C 1.464844 2.121094 1.742188 2.363281 2.046875 2.640625 C 2.636719 3.097656 3.402344 3.820312 4.132812 4.636719 C 4.589844 5.148438 5.015625 5.628906 5.375 6.101562 C 7.664062 9.082031 7.664062 9.082031 8.242188 9.730469 C 14.347656 16.585938 21.347656 15.855469 30.828125 7.40625 C 39.832031 -0.617188 41.304688 -7.617188 35.378906 -14.269531 C 34.738281 -14.984375 34.066406 -15.671875 33.457031 -16.289062 C 30.976562 -18.730469 30.976562 -18.730469 30.367188 -19.410156 C 29.789062 -20.058594 29.519531 -20.429688 29.078125 -21.199219 C 28.839844 -21.539062 28.632812 -21.839844 28.449219 -22.046875 C 27.933594 -22.625 27.1875 -22.636719 26.609375 -22.117188 C 26.371094 -21.90625 26.230469 -21.71875 26.1875 -21.5625 L 25.769531 -20.453125 C 25.558594 -20.140625 25.351562 -19.957031 24.804688 -19.40625 L 23.4375 -18.191406 Z M 27.039062 -9.347656 C 28.027344 -10.226562 28.21875 -10.214844 29.34375 -8.953125 C 31.320312 -6.738281 30.191406 -4.570312 24.429688 0.566406 C 18.800781 5.582031 16.617188 6.425781 14.640625 4.207031 C 13.578125 3.015625 13.53125 2.6875 14.351562 1.960938 Z M 27.039062 -9.347656 "/></g></g></g><g fill="#000000" fill-opacity="1"><g transform="translate(106.84316, 254.834264)"><g><path d="M 4.875 -3.066406 C 3.1875 -1 3.160156 -0.96875 2.652344 -0.738281 C 1.683594 -0.347656 1.683594 -0.347656 1.445312 -0.0546875 C 0.945312 0.558594 1.042969 1.230469 1.65625 1.730469 C 1.847656 1.886719 2.195312 2.121094 2.515625 2.324219 C 3.363281 2.804688 3.710938 3.035156 4.386719 3.589844 C 5.324219 4.355469 6.304688 5.261719 6.863281 5.828125 C 7.226562 6.179688 7.488281 6.449219 7.714844 6.632812 C 8.261719 7.082031 8.933594 6.984375 9.382812 6.4375 C 9.542969 6.242188 9.640625 6.054688 9.683594 5.871094 L 9.78125 5.359375 L 9.902344 4.8125 C 10.023438 4.535156 10.179688 4.339844 10.597656 3.765625 L 11.652344 2.476562 L 14.925781 -1.523438 C 15.507812 -2.234375 15.890625 -2.242188 16.664062 -1.609375 L 17.988281 -0.527344 C 18.890625 0.210938 19.644531 0.933594 19.992188 1.433594 C 20.882812 2.648438 20.882812 2.648438 21.109375 2.832031 C 21.722656 3.332031 22.523438 3.34375 22.917969 2.859375 C 23.023438 2.730469 23.097656 2.574219 23.222656 2.355469 C 23.554688 1.816406 24.28125 0.796875 24.96875 -0.0429688 C 25.496094 -0.6875 26.03125 -1.273438 26.464844 -1.675781 C 26.679688 -1.875 26.8125 -2.035156 26.917969 -2.164062 C 27.339844 -2.679688 27.226562 -3.527344 26.675781 -3.976562 C 26.515625 -4.109375 26.265625 -4.261719 25.953125 -4.40625 C 24.460938 -5.085938 23.867188 -5.414062 23.027344 -6.097656 L 21.1875 -7.601562 C 20.125 -8.472656 20.074219 -8.675781 20.785156 -9.546875 L 22.820312 -12.03125 C 23.558594 -12.9375 23.734375 -12.953125 24.636719 -12.214844 L 26.089844 -11.027344 C 27.863281 -9.574219 28.765625 -8.570312 29.6875 -7.0625 C 29.863281 -6.753906 30.070312 -6.480469 30.199219 -6.375 C 30.714844 -5.949219 31.601562 -5.980469 31.945312 -6.398438 C 32.050781 -6.527344 32.175781 -6.75 32.300781 -6.96875 C 32.742188 -7.902344 34.179688 -10.121094 35.023438 -11.152344 C 35.605469 -11.863281 35.605469 -11.863281 35.652344 -11.984375 C 35.957031 -12.488281 35.84375 -13.011719 35.390625 -13.382812 C 35.230469 -13.511719 34.972656 -13.722656 34.6875 -13.902344 C 34.085938 -14.289062 30.691406 -16.851562 29.882812 -17.507812 C 28.238281 -18.855469 24.414062 -22.144531 23.722656 -22.816406 C 23.265625 -23.246094 22.839844 -23.648438 22.582031 -23.859375 C 21.9375 -24.386719 21.292969 -24.320312 20.816406 -23.742188 C 20.632812 -23.515625 20.53125 -23.328125 20.515625 -23.175781 C 20.460938 -22.847656 20.378906 -22.480469 20.296875 -22.117188 C 20.152344 -21.808594 20.019531 -21.644531 19.578125 -21.039062 L 18.546875 -19.78125 Z M 4.875 -3.066406 "/></g></g></g><g fill="#000000" fill-opacity="1"><g transform="translate(130.463184, 272.354505)"><g><path d="M 4.089844 -4.054688 C 2.894531 -1.671875 2.894531 -1.671875 2.445312 -1.335938 C 1.585938 -0.742188 1.585938 -0.742188 1.398438 -0.371094 C 1.082031 0.261719 1.265625 0.914062 1.898438 1.234375 C 2.121094 1.347656 2.476562 1.476562 2.90625 1.644531 C 3.539062 1.871094 4.84375 2.433594 5.585938 2.808594 C 6.40625 3.21875 7.671875 3.949219 8.230469 4.320312 C 8.585938 4.546875 8.902344 4.75 9.125 4.863281 C 9.722656 5.164062 10.355469 4.921875 10.675781 4.289062 C 10.785156 4.066406 10.84375 3.859375 10.84375 3.675781 C 10.769531 3.355469 10.808594 3.003906 10.828125 2.59375 C 10.882812 2.292969 10.996094 2.070312 11.292969 1.382812 L 12.023438 -0.0703125 L 21.699219 -19.328125 C 22.878906 -21.675781 22.914062 -21.75 23.363281 -22.085938 C 24.238281 -22.714844 24.238281 -22.714844 24.410156 -23.050781 C 24.726562 -23.683594 24.542969 -24.335938 23.945312 -24.636719 C 23.722656 -24.75 23.367188 -24.878906 22.976562 -25.03125 C 22.214844 -25.273438 21.167969 -25.703125 20.015625 -26.285156 C 18.972656 -26.808594 18.171875 -27.257812 17.539062 -27.761719 C 17.222656 -27.96875 16.90625 -28.171875 16.683594 -28.285156 C 16.085938 -28.585938 15.453125 -28.34375 15.132812 -27.710938 C 15.003906 -27.449219 14.945312 -27.246094 14.964844 -27.097656 C 14.984375 -26.761719 15 -26.425781 14.980469 -26.015625 C 14.90625 -25.679688 14.792969 -25.457031 14.511719 -24.804688 L 13.765625 -23.3125 Z M 4.089844 -4.054688 "/></g></g></g><g fill="#000000" fill-opacity="1"><g transform="translate(149.774619, 281.818492)"><g><path d="M 30.453125 -20.984375 C 31.007812 -23.507812 31.03125 -23.632812 31.382812 -24.066406 C 32.070312 -24.855469 32.070312 -24.855469 32.15625 -25.261719 C 32.300781 -25.914062 31.96875 -26.542969 31.359375 -26.675781 C 31.152344 -26.71875 30.777344 -26.757812 30.445312 -26.789062 C 29.804688 -26.800781 28.933594 -26.90625 28.324219 -27.042969 C 27.710938 -27.175781 26.914062 -27.433594 26.210938 -27.71875 C 25.851562 -27.839844 25.453125 -27.96875 25.25 -28.011719 C 24.558594 -28.164062 24.003906 -27.773438 23.84375 -27.039062 C 23.796875 -26.835938 23.792969 -26.625 23.839844 -26.445312 L 23.984375 -25.941406 L 24.121094 -25.402344 C 24.132812 -25.058594 24.078125 -24.8125 23.96875 -24.109375 L 23.613281 -22.484375 L 21.625 -13.402344 C 21.402344 -12.382812 21.277344 -12.199219 20.910156 -12.277344 C 20.582031 -12.347656 20.425781 -12.597656 20.328125 -13.132812 L 17.375 -27.519531 C 17.039062 -29.296875 16.699219 -29.886719 15.964844 -30.046875 C 15.722656 -30.097656 15.425781 -30.121094 15.09375 -30.152344 C 14.28125 -30.15625 13.949219 -30.1875 13.175781 -30.359375 C 12.117188 -30.589844 11.1875 -30.835938 10.328125 -31.195312 C 9.890625 -31.332031 9.492188 -31.460938 9.207031 -31.523438 C 8.511719 -31.675781 7.957031 -31.285156 7.808594 -30.59375 C 7.746094 -30.308594 7.742188 -30.097656 7.796875 -29.957031 C 7.9375 -29.625 8.027344 -29.265625 8.078125 -28.914062 C 8.089844 -28.570312 8.035156 -28.324219 7.925781 -27.625 L 7.566406 -25.996094 L 2.960938 -4.941406 C 2.390625 -2.335938 2.390625 -2.335938 2.039062 -1.902344 C 1.351562 -1.113281 1.351562 -1.113281 1.265625 -0.703125 C 1.121094 -0.0546875 1.453125 0.574219 2.0625 0.707031 C 2.269531 0.753906 2.601562 0.78125 2.9375 0.8125 C 3.523438 0.855469 4.601562 1.007812 5.253906 1.148438 C 5.945312 1.300781 6.863281 1.589844 7.40625 1.835938 C 7.765625 1.957031 8.082031 2.066406 8.246094 2.105469 C 8.855469 2.238281 9.417969 1.804688 9.5625 1.15625 C 9.617188 0.910156 9.621094 0.699219 9.574219 0.515625 L 9.289062 -0.527344 C 9.28125 -0.871094 9.332031 -1.113281 9.445312 -1.816406 L 9.800781 -3.445312 L 11.90625 -13.054688 C 12.039062 -13.664062 12.203125 -13.84375 12.570312 -13.761719 C 12.816406 -13.707031 13.023438 -13.492188 13.066406 -13.097656 L 16.230469 2.273438 C 16.445312 3.429688 16.84375 3.945312 17.621094 4.113281 C 17.863281 4.167969 18.199219 4.195312 18.613281 4.246094 C 19.375 4.285156 20.117188 4.402344 20.726562 4.539062 C 21.378906 4.679688 22.988281 5.117188 23.417969 5.296875 C 23.777344 5.417969 24.09375 5.53125 24.296875 5.574219 C 24.910156 5.707031 25.472656 5.277344 25.613281 4.625 C 25.667969 4.382812 25.671875 4.167969 25.625 3.988281 C 25.507812 3.75 25.417969 3.386719 25.34375 2.945312 C 25.324219 2.640625 25.386719 2.355469 25.488281 1.695312 L 25.84375 0.0664062 Z M 30.453125 -20.984375 "/></g></g></g><g fill="#000000" fill-opacity="1"><g transform="translate(185.96584, 288.008919)"><g><path d="M 1.320312 -5.605469 L 1.472656 -3.945312 C 1.515625 -3.070312 1.5 -2.777344 1.367188 -2.386719 C 0.957031 -1.429688 0.957031 -1.429688 0.992188 -1.054688 C 1.054688 -0.347656 1.5625 0.148438 2.183594 0.0898438 C 2.351562 0.0742188 2.679688 0 3.050781 -0.0742188 C 3.703125 -0.261719 4.648438 -0.433594 5.644531 -0.527344 C 6.265625 -0.582031 6.847656 -0.636719 7.390625 -0.648438 C 10.820312 -0.714844 10.820312 -0.714844 11.605469 -0.789062 C 19.949219 -1.566406 23.203125 -7.101562 22.128906 -18.640625 C 21.105469 -29.597656 16.761719 -34.46875 8.667969 -33.714844 C 7.792969 -33.632812 6.925781 -33.507812 6.140625 -33.394531 C 3.007812 -32.894531 3.007812 -32.894531 2.175781 -32.816406 C 1.386719 -32.742188 0.96875 -32.746094 0.164062 -32.835938 C -0.210938 -32.84375 -0.546875 -32.855469 -0.796875 -32.832031 C -1.503906 -32.765625 -1.914062 -32.226562 -1.847656 -31.519531 C -1.820312 -31.230469 -1.757812 -31.027344 -1.664062 -30.910156 L -1.078125 -30 C -0.964844 -29.675781 -0.941406 -29.425781 -0.832031 -28.726562 L -0.679688 -27.066406 Z M 7.769531 -24.921875 C 7.65625 -26.125 7.769531 -26.261719 9.304688 -26.40625 C 12.003906 -26.65625 12.984375 -24.652344 13.636719 -17.640625 C 14.277344 -10.792969 13.714844 -8.730469 11.015625 -8.476562 C 9.5625 -8.34375 9.300781 -8.484375 9.207031 -9.480469 Z M 7.769531 -24.921875 "/></g></g></g><g fill="#000000" fill-opacity="1"><g transform="translate(219.418218, 283.395293)"><g><path d="M -0.304688 -5.753906 C 0.675781 -3.273438 0.675781 -3.273438 0.628906 -2.714844 C 0.5 -1.679688 0.5 -1.679688 0.65625 -1.289062 C 0.929688 -0.59375 1.527344 -0.335938 2.222656 -0.613281 C 2.613281 -0.765625 3.0625 -0.988281 3.628906 -1.257812 C 4.410156 -1.65625 7.441406 -2.945312 9.574219 -3.789062 C 12.171875 -4.816406 16.191406 -6.320312 17.324219 -6.632812 L 18.542969 -7.070312 C 19.277344 -7.363281 19.480469 -7.980469 19.144531 -8.832031 C 18.335938 -10.757812 17.917969 -12.382812 17.675781 -14.125 C 17.644531 -14.429688 17.578125 -14.714844 17.5 -14.910156 C 17.285156 -15.449219 16.503906 -15.726562 15.847656 -15.464844 C 15.691406 -15.402344 15.511719 -15.285156 15.335938 -15.171875 C 13.222656 -13.484375 12.710938 -13.191406 10.074219 -12.148438 L 8.292969 -11.441406 C 7.011719 -10.9375 6.757812 -11.015625 6.359375 -12.023438 L 5.238281 -14.851562 C 4.902344 -15.703125 5.082031 -16.042969 6.011719 -16.414062 L 8.21875 -17.285156 C 9.265625 -17.699219 10.304688 -18.023438 10.910156 -18.082031 C 12.402344 -18.269531 12.402344 -18.269531 12.714844 -18.394531 C 13.410156 -18.667969 13.808594 -19.363281 13.578125 -19.945312 C 13.53125 -20.0625 13.417969 -20.242188 13.285156 -20.457031 C 12.992188 -20.96875 12.441406 -22.140625 12.101562 -22.992188 C 11.828125 -23.691406 11.589844 -24.402344 11.484375 -24.898438 C 11.429688 -25.148438 11.335938 -25.378906 11.292969 -25.496094 C 11.046875 -26.117188 10.289062 -26.445312 9.628906 -26.183594 C 9.4375 -26.105469 9.140625 -25.945312 8.863281 -25.746094 C 7.480469 -24.707031 7.007812 -24.429688 6 -24.027344 L 3.671875 -23.109375 C 2.355469 -22.585938 2.15625 -22.640625 1.726562 -23.726562 L 0.699219 -26.324219 C 0.269531 -27.410156 0.339844 -27.570312 1.421875 -28 L 3.324219 -28.753906 C 5.453125 -29.597656 6.769531 -29.894531 8.535156 -29.964844 C 8.875 -30.011719 9.21875 -30.054688 9.371094 -30.117188 C 9.992188 -30.363281 10.398438 -31.152344 10.199219 -31.65625 C 10.136719 -31.808594 10.007812 -32.027344 9.835938 -32.230469 C 8.972656 -33.5 8.167969 -34.976562 7.5 -36.773438 C 7.175781 -37.585938 6.621094 -37.859375 5.921875 -37.582031 C 5.730469 -37.507812 5.457031 -37.398438 5.164062 -37.238281 C 4.535156 -36.898438 0.644531 -35.179688 -0.558594 -34.703125 C -2.804688 -33.8125 -7.542969 -32.074219 -8.617188 -31.738281 C -9.097656 -31.589844 -9.578125 -31.445312 -9.851562 -31.339844 C -10.625 -31.03125 -10.882812 -30.4375 -10.609375 -29.738281 C -10.5 -29.46875 -10.382812 -29.289062 -10.261719 -29.203125 C -9.96875 -28.917969 -9.707031 -28.707031 -9.441406 -28.496094 C -9.242188 -28.21875 -9.167969 -28.023438 -8.851562 -27.339844 L -8.253906 -25.828125 Z M -0.304688 -5.753906 "/></g></g></g><g fill="#000000" fill-opacity="1"><g transform="translate(248.294039, 270.74334)"><g><path d="M -1.925781 -5.429688 L -0.894531 -4.117188 C -0.390625 -3.402344 -0.242188 -3.148438 -0.140625 -2.75 C 0.03125 -1.71875 0.03125 -1.71875 0.261719 -1.421875 C 0.699219 -0.867188 1.394531 -0.722656 1.917969 -1.132812 C 2.082031 -1.261719 2.320312 -1.5 2.554688 -1.738281 C 3.042969 -2.332031 3.578125 -2.800781 4.363281 -3.417969 C 5.28125 -4.140625 6.351562 -4.871094 6.925781 -5.21875 C 7.28125 -5.441406 7.601562 -5.640625 7.765625 -5.769531 C 8.292969 -6.179688 8.34375 -6.855469 7.90625 -7.414062 C 7.753906 -7.609375 7.589844 -7.75 7.421875 -7.828125 C 6.976562 -8.0625 6.773438 -8.117188 6.4375 -8.273438 C 6.191406 -8.453125 6.039062 -8.652344 5.566406 -9.183594 L 4.539062 -10.496094 L 1.632812 -14.203125 C 1.066406 -14.925781 1.039062 -15.164062 1.367188 -15.421875 C 1.824219 -15.78125 2.886719 -15.714844 4.378906 -15.292969 C 6.234375 -14.683594 9.75 -12.566406 10.597656 -11.480469 C 10.75 -11.285156 10.75 -11.285156 10.882812 -10.644531 C 10.910156 -10.40625 11.03125 -10.183594 11.160156 -10.019531 C 11.597656 -9.460938 12.328125 -9.34375 12.820312 -9.726562 C 13.015625 -9.882812 13.253906 -10.121094 13.554688 -10.410156 C 14.066406 -10.972656 15.027344 -11.777344 16.078125 -12.597656 C 16.960938 -13.292969 17.644531 -13.773438 18.28125 -14.113281 C 18.601562 -14.3125 18.890625 -14.484375 19.054688 -14.613281 C 19.578125 -15.023438 19.570312 -15.707031 19.082031 -16.332031 C 18.878906 -16.59375 18.792969 -16.632812 18.222656 -16.824219 C 17.652344 -17.011719 17.398438 -17.128906 16.429688 -17.960938 C 13.824219 -20.207031 10.441406 -21.953125 7.746094 -22.488281 C 6.691406 -22.617188 6.691406 -22.617188 6.613281 -22.714844 C 6.511719 -22.84375 6.574219 -23.105469 6.945312 -23.980469 C 7.964844 -26.261719 7.195312 -29.207031 4.878906 -32.15625 C 0.714844 -37.472656 -4.59375 -38.027344 -10.070312 -33.734375 C -10.5 -33.398438 -11.128906 -32.851562 -11.890625 -32.203125 C -14.617188 -29.800781 -14.617188 -29.800781 -15.304688 -29.261719 C -16.027344 -28.695312 -16.675781 -28.238281 -17.5 -27.804688 C -17.886719 -27.554688 -18.242188 -27.332031 -18.472656 -27.152344 C -18.996094 -26.738281 -19.074219 -26.097656 -18.613281 -25.503906 C -18.457031 -25.308594 -18.296875 -25.171875 -18.128906 -25.089844 C -17.699219 -24.949219 -17.671875 -24.917969 -17.167969 -24.675781 C -16.898438 -24.464844 -16.742188 -24.269531 -16.273438 -23.738281 L -15.242188 -22.425781 Z M -7.082031 -25.324219 C -7.625 -26.015625 -7.582031 -26.363281 -6.859375 -26.929688 C -4.628906 -28.679688 -3.035156 -28.605469 -1.492188 -26.636719 C -0.0234375 -24.765625 -0.148438 -23.027344 -1.886719 -21.667969 C -3.132812 -20.6875 -3.40625 -20.632812 -3.972656 -21.355469 Z M -7.082031 -25.324219 "/></g></g></g><g clip-path="url(#6d26c4f7ae)"><path fill="#000000" d="M 137.136719 165.59375 L 137.082031 217.417969 L 155.371094 173.105469 C 155.828125 171.996094 156.902344 171.28125 158.101562 171.28125 L 216.757812 171.28125 L 216.757812 165.660156 Z M 137.746094 223.375 C 137.894531 223.4375 138.050781 223.476562 138.222656 223.476562 L 216.464844 223.476562 C 216.933594 223.476562 217.351562 223.195312 217.523438 222.765625 L 237.472656 174.246094 L 158.101562 174.160156 Z M 138.222656 226.355469 C 136 226.355469 134.1875 224.550781 134.1875 222.332031 L 134.1875 165.660156 C 134.1875 164.035156 135.511719 162.710938 137.136719 162.710938 L 216.695312 162.710938 C 218.328125 162.710938 219.648438 164.035156 219.648438 165.660156 L 219.648438 171.28125 L 237.417969 171.28125 C 238.398438 171.28125 239.320312 171.765625 239.867188 172.578125 C 240.414062 173.402344 240.519531 174.433594 240.148438 175.339844 L 220.199219 223.859375 C 219.574219 225.378906 218.113281 226.355469 216.464844 226.355469 L 138.222656 226.355469 " fill-opacity="1" fill-rule="nonzero"/></g><g clip-path="url(#ceaa23a514)"><path fill="#000000" d="M 168.65625 164.152344 L 165.765625 164.152344 L 165.765625 159.621094 C 165.765625 159.542969 165.703125 159.480469 165.625 159.480469 L 140.796875 159.480469 C 140.714844 159.480469 140.652344 159.542969 140.652344 159.621094 L 140.652344 164.152344 L 137.765625 164.152344 L 137.765625 159.621094 C 137.765625 157.953125 139.117188 156.597656 140.796875 156.597656 L 165.625 156.597656 C 167.296875 156.597656 168.65625 157.953125 168.65625 159.621094 L 168.65625 164.152344 " fill-opacity="1" fill-rule="nonzero"/></g></svg>